<mxfile host="app.diagrams.net" modified="2023-10-09T22:15:30.404Z" agent="Mozilla/5.0 (Windows NT 10.0; Win64; x64) AppleWebKit/537.36 (KHTML, like Gecko) Chrome/116.0.5845.967 YaBrowser/23.9.1.967 Yowser/2.5 Safari/537.36" etag="im7r8Ezf4e2vCAV0r27S" version="22.0.4" type="device">
  <diagram name="Страница — 1" id="LLiLSlD8McmwZEVE7HnJ">
    <mxGraphModel dx="1105" dy="580" grid="1" gridSize="10" guides="1" tooltips="1" connect="1" arrows="1" fold="1" page="1" pageScale="1" pageWidth="1169" pageHeight="1654" math="0" shadow="0">
      <root>
        <mxCell id="0" />
        <mxCell id="1" parent="0" />
        <mxCell id="7vlljuGrHyBw48hArxql-1" value="&lt;font style=&quot;font-size: 18px;&quot;&gt;продать вязаного осьминога&lt;/font&gt;" style="rounded=0;whiteSpace=wrap;html=1;" vertex="1" parent="1">
          <mxGeometry x="220" y="170" width="340" height="130" as="geometry" />
        </mxCell>
        <mxCell id="7vlljuGrHyBw48hArxql-2" value="" style="endArrow=classic;html=1;rounded=0;entryX=0.24;entryY=-0.004;entryDx=0;entryDy=0;entryPerimeter=0;" edge="1" parent="1">
          <mxGeometry width="50" height="50" relative="1" as="geometry">
            <mxPoint x="275" y="50.36" as="sourcePoint" />
            <mxPoint x="275.0000000000001" y="170" as="targetPoint" />
          </mxGeometry>
        </mxCell>
        <mxCell id="7vlljuGrHyBw48hArxql-5" value="схема &lt;br&gt;вязания" style="text;html=1;align=center;verticalAlign=middle;resizable=0;points=[];autosize=1;strokeColor=none;fillColor=none;rotation=0;" vertex="1" parent="1">
          <mxGeometry x="205" y="100" width="70" height="40" as="geometry" />
        </mxCell>
        <mxCell id="7vlljuGrHyBw48hArxql-6" value="данные &lt;br&gt;от SMM-&lt;br&gt;менеджера" style="text;html=1;align=center;verticalAlign=middle;resizable=0;points=[];autosize=1;strokeColor=none;fillColor=none;rotation=0;" vertex="1" parent="1">
          <mxGeometry x="100" y="150" width="90" height="60" as="geometry" />
        </mxCell>
        <mxCell id="7vlljuGrHyBw48hArxql-8" value="" style="endArrow=classic;html=1;rounded=0;entryX=0.24;entryY=-0.004;entryDx=0;entryDy=0;entryPerimeter=0;" edge="1" parent="1">
          <mxGeometry width="50" height="50" relative="1" as="geometry">
            <mxPoint x="385" y="50" as="sourcePoint" />
            <mxPoint x="385" y="170" as="targetPoint" />
          </mxGeometry>
        </mxCell>
        <mxCell id="7vlljuGrHyBw48hArxql-9" value="" style="endArrow=classic;html=1;rounded=0;exitX=1.001;exitY=0.468;exitDx=0;exitDy=0;exitPerimeter=0;" edge="1" parent="1" source="7vlljuGrHyBw48hArxql-1">
          <mxGeometry width="50" height="50" relative="1" as="geometry">
            <mxPoint x="760" y="203" as="sourcePoint" />
            <mxPoint x="730" y="230" as="targetPoint" />
          </mxGeometry>
        </mxCell>
        <mxCell id="7vlljuGrHyBw48hArxql-12" value="материалы от &lt;br&gt;ответственного &lt;br&gt;по закупкам" style="text;html=1;align=center;verticalAlign=middle;resizable=0;points=[];autosize=1;strokeColor=none;fillColor=none;" vertex="1" parent="1">
          <mxGeometry x="90" y="220" width="110" height="60" as="geometry" />
        </mxCell>
        <mxCell id="7vlljuGrHyBw48hArxql-13" value="" style="endArrow=classic;html=1;rounded=0;" edge="1" parent="1">
          <mxGeometry width="50" height="50" relative="1" as="geometry">
            <mxPoint x="80" y="210" as="sourcePoint" />
            <mxPoint x="220" y="210" as="targetPoint" />
          </mxGeometry>
        </mxCell>
        <mxCell id="7vlljuGrHyBw48hArxql-14" value="" style="endArrow=classic;html=1;rounded=0;" edge="1" parent="1">
          <mxGeometry width="50" height="50" relative="1" as="geometry">
            <mxPoint x="80" y="280" as="sourcePoint" />
            <mxPoint x="220" y="280" as="targetPoint" />
          </mxGeometry>
        </mxCell>
        <mxCell id="7vlljuGrHyBw48hArxql-15" value="" style="endArrow=classic;html=1;rounded=0;entryX=0.24;entryY=1.002;entryDx=0;entryDy=0;entryPerimeter=0;" edge="1" parent="1">
          <mxGeometry width="50" height="50" relative="1" as="geometry">
            <mxPoint x="290" y="379.74" as="sourcePoint" />
            <mxPoint x="290" y="300" as="targetPoint" />
          </mxGeometry>
        </mxCell>
        <mxCell id="7vlljuGrHyBw48hArxql-17" value="" style="endArrow=classic;html=1;rounded=0;entryX=0.24;entryY=1.002;entryDx=0;entryDy=0;entryPerimeter=0;" edge="1" parent="1">
          <mxGeometry width="50" height="50" relative="1" as="geometry">
            <mxPoint x="395" y="380" as="sourcePoint" />
            <mxPoint x="395" y="300" as="targetPoint" />
          </mxGeometry>
        </mxCell>
        <mxCell id="7vlljuGrHyBw48hArxql-18" value="Вязальщик" style="text;html=1;align=center;verticalAlign=middle;resizable=0;points=[];autosize=1;strokeColor=none;fillColor=none;" vertex="1" parent="1">
          <mxGeometry x="210" y="328" width="90" height="30" as="geometry" />
        </mxCell>
        <mxCell id="7vlljuGrHyBw48hArxql-19" value="правила и цены &lt;br&gt;на отправку &lt;br&gt;Почты России" style="text;html=1;align=center;verticalAlign=middle;resizable=0;points=[];autosize=1;strokeColor=none;fillColor=none;" vertex="1" parent="1">
          <mxGeometry x="275" y="90" width="110" height="60" as="geometry" />
        </mxCell>
        <mxCell id="7vlljuGrHyBw48hArxql-21" value="SMM-&lt;br&gt;менеджер" style="text;html=1;align=center;verticalAlign=middle;resizable=0;points=[];autosize=1;strokeColor=none;fillColor=none;" vertex="1" parent="1">
          <mxGeometry x="325" y="323" width="80" height="40" as="geometry" />
        </mxCell>
        <mxCell id="7vlljuGrHyBw48hArxql-23" value="" style="endArrow=classic;html=1;rounded=0;entryX=0.24;entryY=1.002;entryDx=0;entryDy=0;entryPerimeter=0;" edge="1" parent="1">
          <mxGeometry width="50" height="50" relative="1" as="geometry">
            <mxPoint x="495" y="380" as="sourcePoint" />
            <mxPoint x="495" y="300" as="targetPoint" />
          </mxGeometry>
        </mxCell>
        <mxCell id="7vlljuGrHyBw48hArxql-25" value="Ответственный&lt;br&gt;за отправку" style="text;html=1;align=center;verticalAlign=middle;resizable=0;points=[];autosize=1;strokeColor=none;fillColor=none;" vertex="1" parent="1">
          <mxGeometry x="395" y="323" width="110" height="40" as="geometry" />
        </mxCell>
        <mxCell id="7vlljuGrHyBw48hArxql-26" value="клиент получил&lt;br&gt;вязаного осьминога" style="text;html=1;align=center;verticalAlign=middle;resizable=0;points=[];autosize=1;strokeColor=none;fillColor=none;" vertex="1" parent="1">
          <mxGeometry x="575" y="190" width="130" height="40" as="geometry" />
        </mxCell>
        <mxCell id="7vlljuGrHyBw48hArxql-28" value="Контекстная диаграмма" style="text;html=1;align=center;verticalAlign=middle;resizable=0;points=[];autosize=1;strokeColor=none;fillColor=none;" vertex="1" parent="1">
          <mxGeometry x="280" width="160" height="30" as="geometry" />
        </mxCell>
        <mxCell id="7vlljuGrHyBw48hArxql-29" value="получение заказа&amp;nbsp;&lt;br&gt;на осьминога" style="rounded=0;whiteSpace=wrap;html=1;" vertex="1" parent="1">
          <mxGeometry x="150" y="560" width="120" height="40" as="geometry" />
        </mxCell>
        <mxCell id="7vlljuGrHyBw48hArxql-51" style="edgeStyle=orthogonalEdgeStyle;rounded=0;orthogonalLoop=1;jettySize=auto;html=1;entryX=0;entryY=0.5;entryDx=0;entryDy=0;" edge="1" parent="1" source="7vlljuGrHyBw48hArxql-30" target="7vlljuGrHyBw48hArxql-32">
          <mxGeometry relative="1" as="geometry" />
        </mxCell>
        <mxCell id="7vlljuGrHyBw48hArxql-30" value="изготовление осьминога" style="rounded=0;whiteSpace=wrap;html=1;" vertex="1" parent="1">
          <mxGeometry x="310" y="670" width="120" height="40" as="geometry" />
        </mxCell>
        <mxCell id="7vlljuGrHyBw48hArxql-52" style="edgeStyle=orthogonalEdgeStyle;rounded=0;orthogonalLoop=1;jettySize=auto;html=1;entryX=0;entryY=0.5;entryDx=0;entryDy=0;" edge="1" parent="1" source="7vlljuGrHyBw48hArxql-32" target="7vlljuGrHyBw48hArxql-33">
          <mxGeometry relative="1" as="geometry" />
        </mxCell>
        <mxCell id="7vlljuGrHyBw48hArxql-32" value="отправка осьминога" style="rounded=0;whiteSpace=wrap;html=1;" vertex="1" parent="1">
          <mxGeometry x="470" y="710" width="120" height="40" as="geometry" />
        </mxCell>
        <mxCell id="7vlljuGrHyBw48hArxql-65" style="edgeStyle=orthogonalEdgeStyle;rounded=0;orthogonalLoop=1;jettySize=auto;html=1;" edge="1" parent="1" source="7vlljuGrHyBw48hArxql-33">
          <mxGeometry relative="1" as="geometry">
            <mxPoint x="880" y="770" as="targetPoint" />
          </mxGeometry>
        </mxCell>
        <mxCell id="7vlljuGrHyBw48hArxql-33" value="получение фидбека&lt;br&gt;об осьминоге" style="rounded=0;whiteSpace=wrap;html=1;" vertex="1" parent="1">
          <mxGeometry x="630" y="750" width="120" height="40" as="geometry" />
        </mxCell>
        <mxCell id="7vlljuGrHyBw48hArxql-35" value="данные &lt;br&gt;от SMM-&lt;br&gt;менеджера" style="text;html=1;align=center;verticalAlign=middle;resizable=0;points=[];autosize=1;strokeColor=none;fillColor=none;rotation=0;" vertex="1" parent="1">
          <mxGeometry x="30" y="540" width="90" height="60" as="geometry" />
        </mxCell>
        <mxCell id="7vlljuGrHyBw48hArxql-36" value="" style="endArrow=classic;html=1;rounded=0;" edge="1" parent="1">
          <mxGeometry width="50" height="50" relative="1" as="geometry">
            <mxPoint x="10" y="580" as="sourcePoint" />
            <mxPoint x="150" y="580" as="targetPoint" />
          </mxGeometry>
        </mxCell>
        <mxCell id="7vlljuGrHyBw48hArxql-37" value="" style="endArrow=classic;html=1;rounded=0;entryX=0;entryY=0.5;entryDx=0;entryDy=0;" edge="1" parent="1" target="7vlljuGrHyBw48hArxql-30">
          <mxGeometry width="50" height="50" relative="1" as="geometry">
            <mxPoint x="270" y="580" as="sourcePoint" />
            <mxPoint x="370" y="490" as="targetPoint" />
            <Array as="points">
              <mxPoint x="280" y="580" />
              <mxPoint x="280" y="690" />
              <mxPoint x="310" y="690" />
            </Array>
          </mxGeometry>
        </mxCell>
        <mxCell id="7vlljuGrHyBw48hArxql-38" value="&lt;div style=&quot;font-size: 9px;&quot;&gt;&lt;span style=&quot;background-color: initial; font-size: 9px;&quot;&gt;&lt;font style=&quot;font-size: 9px;&quot;&gt;данные от&lt;/font&gt;&lt;/span&gt;&lt;/div&gt;&lt;font style=&quot;font-size: 9px;&quot;&gt;&lt;div style=&quot;font-size: 9px;&quot;&gt;&lt;span style=&quot;background-color: initial; font-size: 9px;&quot;&gt;клиента,&lt;/span&gt;&lt;/div&gt;&lt;div style=&quot;font-size: 9px;&quot;&gt;&lt;span style=&quot;background-color: initial; font-size: 9px;&quot;&gt;какой ему&lt;/span&gt;&lt;/div&gt;&lt;div style=&quot;font-size: 9px;&quot;&gt;&lt;span style=&quot;background-color: initial; font-size: 9px;&quot;&gt;нужен&lt;/span&gt;&lt;/div&gt;&lt;div style=&quot;font-size: 9px;&quot;&gt;&lt;span style=&quot;background-color: initial; font-size: 9px;&quot;&gt;осьминог&lt;/span&gt;&lt;/div&gt;&lt;/font&gt;" style="text;html=1;align=right;verticalAlign=middle;resizable=0;points=[];autosize=1;strokeColor=none;fillColor=none;fontSize=9;" vertex="1" parent="1">
          <mxGeometry x="210" y="620" width="70" height="70" as="geometry" />
        </mxCell>
        <mxCell id="7vlljuGrHyBw48hArxql-39" value="" style="endArrow=classic;html=1;rounded=0;entryX=0.665;entryY=-0.014;entryDx=0;entryDy=0;entryPerimeter=0;" edge="1" parent="1">
          <mxGeometry width="50" height="50" relative="1" as="geometry">
            <mxPoint x="324.9" y="440.56" as="sourcePoint" />
            <mxPoint x="324.69999999999993" y="670" as="targetPoint" />
          </mxGeometry>
        </mxCell>
        <mxCell id="7vlljuGrHyBw48hArxql-40" value="схема &lt;br style=&quot;font-size: 10px;&quot;&gt;вязания" style="text;html=1;align=center;verticalAlign=middle;resizable=0;points=[];autosize=1;strokeColor=none;fillColor=none;rotation=0;fontSize=10;" vertex="1" parent="1">
          <mxGeometry x="275" y="440.56" width="60" height="40" as="geometry" />
        </mxCell>
        <mxCell id="7vlljuGrHyBw48hArxql-46" value="" style="endArrow=classic;html=1;rounded=0;entryX=0.24;entryY=-0.004;entryDx=0;entryDy=0;entryPerimeter=0;" edge="1" parent="1">
          <mxGeometry width="50" height="50" relative="1" as="geometry">
            <mxPoint x="459.85" y="50" as="sourcePoint" />
            <mxPoint x="459.85" y="170" as="targetPoint" />
          </mxGeometry>
        </mxCell>
        <mxCell id="7vlljuGrHyBw48hArxql-47" value="наличие" style="text;html=1;align=center;verticalAlign=middle;resizable=0;points=[];autosize=1;strokeColor=none;fillColor=none;" vertex="1" parent="1">
          <mxGeometry x="395" y="100" width="70" height="30" as="geometry" />
        </mxCell>
        <mxCell id="7vlljuGrHyBw48hArxql-48" value="" style="endArrow=classic;html=1;rounded=0;entryX=0.665;entryY=-0.014;entryDx=0;entryDy=0;entryPerimeter=0;" edge="1" parent="1">
          <mxGeometry width="50" height="50" relative="1" as="geometry">
            <mxPoint x="379.59" y="440.56" as="sourcePoint" />
            <mxPoint x="379.38999999999993" y="670" as="targetPoint" />
          </mxGeometry>
        </mxCell>
        <mxCell id="7vlljuGrHyBw48hArxql-49" value="наличие" style="text;html=1;align=center;verticalAlign=middle;resizable=0;points=[];autosize=1;strokeColor=none;fillColor=none;rotation=0;fontSize=10;" vertex="1" parent="1">
          <mxGeometry x="325" y="445.56" width="60" height="30" as="geometry" />
        </mxCell>
        <mxCell id="7vlljuGrHyBw48hArxql-53" value="" style="endArrow=classic;html=1;rounded=0;entryX=0.24;entryY=-0.004;entryDx=0;entryDy=0;entryPerimeter=0;" edge="1" parent="1">
          <mxGeometry width="50" height="50" relative="1" as="geometry">
            <mxPoint x="574" y="440" as="sourcePoint" />
            <mxPoint x="574.23" y="710" as="targetPoint" />
          </mxGeometry>
        </mxCell>
        <mxCell id="7vlljuGrHyBw48hArxql-54" value="правила и цены &lt;br&gt;на отправку &lt;br&gt;Почты России" style="text;html=1;align=center;verticalAlign=middle;resizable=0;points=[];autosize=1;strokeColor=none;fillColor=none;" vertex="1" parent="1">
          <mxGeometry x="465" y="440.56" width="110" height="60" as="geometry" />
        </mxCell>
        <mxCell id="7vlljuGrHyBw48hArxql-55" value="" style="endArrow=classic;html=1;rounded=0;entryX=0.24;entryY=1.002;entryDx=0;entryDy=0;entryPerimeter=0;" edge="1" parent="1">
          <mxGeometry width="50" height="50" relative="1" as="geometry">
            <mxPoint x="345" y="880" as="sourcePoint" />
            <mxPoint x="345" y="710.26" as="targetPoint" />
          </mxGeometry>
        </mxCell>
        <mxCell id="7vlljuGrHyBw48hArxql-56" value="Вязальщик" style="text;html=1;align=center;verticalAlign=middle;resizable=0;points=[];autosize=1;strokeColor=none;fillColor=none;" vertex="1" parent="1">
          <mxGeometry x="300" y="880" width="90" height="30" as="geometry" />
        </mxCell>
        <mxCell id="7vlljuGrHyBw48hArxql-57" value="" style="endArrow=classic;html=1;rounded=0;entryX=0.25;entryY=1;entryDx=0;entryDy=0;" edge="1" parent="1" source="7vlljuGrHyBw48hArxql-58" target="7vlljuGrHyBw48hArxql-29">
          <mxGeometry width="50" height="50" relative="1" as="geometry">
            <mxPoint x="265" y="950" as="sourcePoint" />
            <mxPoint x="265" y="870" as="targetPoint" />
            <Array as="points">
              <mxPoint x="180" y="970" />
            </Array>
          </mxGeometry>
        </mxCell>
        <mxCell id="7vlljuGrHyBw48hArxql-59" style="edgeStyle=orthogonalEdgeStyle;rounded=0;orthogonalLoop=1;jettySize=auto;html=1;entryX=0.202;entryY=0.987;entryDx=0;entryDy=0;entryPerimeter=0;" edge="1" parent="1" source="7vlljuGrHyBw48hArxql-58" target="7vlljuGrHyBw48hArxql-33">
          <mxGeometry relative="1" as="geometry">
            <mxPoint x="330" y="900" as="targetPoint" />
          </mxGeometry>
        </mxCell>
        <mxCell id="7vlljuGrHyBw48hArxql-58" value="SMM-&lt;br&gt;менеджер" style="text;html=1;align=center;verticalAlign=middle;resizable=0;points=[];autosize=1;strokeColor=none;fillColor=none;" vertex="1" parent="1">
          <mxGeometry x="250" y="950" width="80" height="40" as="geometry" />
        </mxCell>
        <mxCell id="7vlljuGrHyBw48hArxql-62" value="" style="endArrow=classic;html=1;rounded=0;entryX=0.24;entryY=1.002;entryDx=0;entryDy=0;entryPerimeter=0;exitX=0.594;exitY=-0.051;exitDx=0;exitDy=0;exitPerimeter=0;" edge="1" parent="1">
          <mxGeometry width="50" height="50" relative="1" as="geometry">
            <mxPoint x="560.34" y="887.9599999999999" as="sourcePoint" />
            <mxPoint x="560" y="750" as="targetPoint" />
          </mxGeometry>
        </mxCell>
        <mxCell id="7vlljuGrHyBw48hArxql-63" value="Ответственный&lt;br&gt;за отправку" style="text;html=1;align=center;verticalAlign=middle;resizable=0;points=[];autosize=1;strokeColor=none;fillColor=none;" vertex="1" parent="1">
          <mxGeometry x="500" y="890" width="110" height="40" as="geometry" />
        </mxCell>
        <mxCell id="7vlljuGrHyBw48hArxql-66" value="клиент получил&lt;br style=&quot;font-size: 9px;&quot;&gt;осьминога и&lt;br style=&quot;font-size: 9px;&quot;&gt;остался доволен" style="text;html=1;align=center;verticalAlign=middle;resizable=0;points=[];autosize=1;strokeColor=none;fillColor=none;fontSize=9;" vertex="1" parent="1">
          <mxGeometry x="770" y="720" width="90" height="50" as="geometry" />
        </mxCell>
        <mxCell id="7vlljuGrHyBw48hArxql-67" value="" style="endArrow=classic;html=1;rounded=0;entryX=0.24;entryY=-0.004;entryDx=0;entryDy=0;entryPerimeter=0;" edge="1" parent="1">
          <mxGeometry width="50" height="50" relative="1" as="geometry">
            <mxPoint x="550" y="50" as="sourcePoint" />
            <mxPoint x="550" y="170" as="targetPoint" />
          </mxGeometry>
        </mxCell>
        <mxCell id="7vlljuGrHyBw48hArxql-68" value="материалы" style="text;html=1;align=center;verticalAlign=middle;resizable=0;points=[];autosize=1;strokeColor=none;fillColor=none;" vertex="1" parent="1">
          <mxGeometry x="465" y="100" width="90" height="30" as="geometry" />
        </mxCell>
        <mxCell id="7vlljuGrHyBw48hArxql-69" value="" style="endArrow=classic;html=1;rounded=0;entryX=0.24;entryY=-0.004;entryDx=0;entryDy=0;entryPerimeter=0;" edge="1" parent="1">
          <mxGeometry width="50" height="50" relative="1" as="geometry">
            <mxPoint x="420" y="530" as="sourcePoint" />
            <mxPoint x="420" y="670" as="targetPoint" />
          </mxGeometry>
        </mxCell>
        <mxCell id="7vlljuGrHyBw48hArxql-70" value="материалы" style="text;html=1;align=center;verticalAlign=middle;resizable=0;points=[];autosize=1;strokeColor=none;fillColor=none;" vertex="1" parent="1">
          <mxGeometry x="380" y="500.56" width="90" height="30" as="geometry" />
        </mxCell>
        <mxCell id="7vlljuGrHyBw48hArxql-72" value="осьминог готов" style="text;html=1;align=center;verticalAlign=middle;resizable=0;points=[];autosize=1;strokeColor=none;fillColor=none;fontSize=6;" vertex="1" parent="1">
          <mxGeometry x="440" y="680" width="70" height="20" as="geometry" />
        </mxCell>
        <mxCell id="7vlljuGrHyBw48hArxql-74" value="&amp;nbsp;&lt;br&gt;" style="text;html=1;align=center;verticalAlign=middle;resizable=0;points=[];autosize=1;strokeColor=none;fillColor=none;" vertex="1" parent="1">
          <mxGeometry x="405" y="388" width="30" height="30" as="geometry" />
        </mxCell>
      </root>
    </mxGraphModel>
  </diagram>
</mxfile>
